<svg t="1729605636166" class="icon" viewBox="0 0 1194 1024" version="1.1" xmlns="http://www.w3.org/2000/svg" p-id="20234" width="200" height="200"><path d="M1105.025228 8.571412a56.317888 56.317888 0 0 1 59.731094 0c18.516639 11.434238 29.865547 32.596111 29.865546 55.464587a64.936232 64.936232 0 0 1-29.865546 55.464586 56.317888 56.317888 0 0 1-59.731094 0 63.74161 63.74161 0 0 1-28.158944-40.617143c-41.641105 2.815894-94.460458 9.215654-139.088117 23.551117-61.693686 18.601969-175.780075 39.849172-251.297243 52.648692l0.17066 0.853301c75.175848 12.79952 186.190351 33.790733 245.153473 52.051382 46.590253 15.018103 101.969509 21.332533 144.463916 23.892437a63.229629 63.229629 0 0 1 28.756255-44.115679 56.317888 56.317888 0 0 1 59.731094 0c18.516639 11.434238 29.865547 32.596111 29.865546 55.464587a64.936232 64.936232 0 0 1-29.865546 55.464587 56.317888 56.317888 0 0 1-59.731094 0 63.144299 63.144299 0 0 1-26.537671-34.473374c-43.859689-2.559904-101.713519-8.874334-152.655609-24.148428-56.573878-18.260649-167.929703-38.995871-243.10555-51.795391C671.63348 227.528534 637.586757 256.028799 597.310934 256.028799c-34.217384 0-63.9976-20.564562-79.101034-50.85676A243.446871 243.446871 0 0 0 391.238662 307.226879 784.439917 784.439917 0 0 1 238.071072 480.105729l274.76303-0.08533c12.287539-37.289268 45.480961-63.9976 84.476832-63.9976 39.763842 0 73.383915 27.732293 85.159473 66.045523 26.964322-4.607827 58.024491-10.239616 89.34065-16.383385l32.510781-6.48509c43.177048-8.874334 84.050181-18.345979 112.550446-27.134983 54.099305-18.175318 115.878321-23.892437 160.420651-25.59904a62.632318 62.632318 0 0 1 27.732293-39.507852 56.317888 56.317888 0 0 1 59.731094 0c18.516639 11.434238 29.865547 32.596111 29.865546 55.464587a64.936232 64.936232 0 0 1-29.865546 55.464587 56.317888 56.317888 0 0 1-59.731094 0 63.570949 63.570949 0 0 1-27.646963-38.14257c-43.177048 2.303914-102.39616 8.533013-151.546317 24.319088-58.536472 17.578007-164.004516 37.545259-239.180364 50.515439 0.17066 1.706603 0.08533 3.413205 0 5.034478 74.407876 12.79952 177.230687 32.596111 233.207255 50.003458 50.85676 16.383386 112.294456 22.356495 155.898153 24.575079a63.485619 63.485619 0 0 1 29.268236-48.040865 56.317888 56.317888 0 0 1 59.731094 0c18.516639 11.434238 29.865547 32.596111 29.865546 55.464586a64.936232 64.936232 0 0 1-29.865546 55.464587 56.317888 56.317888 0 0 1-59.731094 0 62.802978 62.802978 0 0 1-25.172389-30.718848c-44.88365-1.877263-109.649221-7.850372-165.96711-24.745739-54.611285-17.492677-159.994-37.459929-234.828527-50.344778-13.994142 33.449412-45.310301 56.744539-81.746268 56.744538-38.995871 0-72.189293-26.708332-84.476832-63.9976H235.169848c-1.535942 6.48509-3.583866 12.79952-5.97311 18.77263A724.452833 724.452833 0 0 1 370.332779 726.539155 238.753713 238.753713 0 0 0 511.980801 834.481774C523.756359 795.912553 557.547092 768.0096 597.310934 768.0096c41.811765 0 76.96778 30.718848 86.780746 72.189293a4379.142449 4379.142449 0 0 0 87.719377-16.127396l32.510781-6.48509c43.177048-8.874334 84.050181-18.345979 112.550446-27.220312 54.099305-18.089988 115.878321-23.892437 160.420651-25.51371a62.632318 62.632318 0 0 1 27.732293-39.507852 56.317888 56.317888 0 0 1 59.731094 0c18.516639 11.434238 29.865547 32.596111 29.865546 55.464587a64.936232 64.936232 0 0 1-29.865546 55.464586 56.317888 56.317888 0 0 1-59.731094 0 63.570949 63.570949 0 0 1-27.646963-38.142569c-43.177048 2.303914-102.39616 8.533013-151.546317 24.233758-58.536472 17.663338-164.260507 36.521297-239.436355 49.235487a40.958464 40.958464 0 0 1-0.42665 6.31443c74.493207 12.79952 177.742668 32.596111 233.889896 50.088788 51.36874 16.468716 112.550446 22.527155 155.983484 24.575078a63.314959 63.314959 0 0 1 29.182905-48.040865 56.317888 56.317888 0 0 1 59.731094 0c18.516639 11.434238 29.865547 32.596111 29.865546 55.464587a64.936232 64.936232 0 0 1-29.865546 55.464587 56.317888 56.317888 0 0 1-59.731094 0 62.802978 62.802978 0 0 1-25.172389-30.718848c-44.88365-1.877263-109.649221-7.850372-165.96711-24.745739-55.208596-17.748668-162.724564-37.971909-237.729752-50.85676A88.487348 88.487348 0 0 1 597.310934 960.0024c-38.48389 0-71.335992-26.025691-83.964851-62.546988A298.314147 298.314147 0 0 1 322.547904 761.60984a698.085822 698.085822 0 0 0-129.360482-149.071744A113.062427 113.062427 0 0 1 119.462187 640.014399C53.501994 640.014399 0 582.67255 0 512.019199s53.501994-127.9952 119.462187-127.9952c34.985355 0 66.386844 16.042065 88.231358 41.641105l0.938631-0.853301a673.254753 673.254753 0 0 0 134.821611-152.740939c47.443554-76.285139 110.758513-113.062427 166.05244-130.299114C517.271269 97.485411 553.621906 64.035999 597.310934 64.035999c37.203938 0 69.117408 24.319088 82.684899 58.877792 25.51371-4.266507 56.061898-9.642305 87.463387-15.615415l32.596111-6.39976c48.894166-9.727635 96.679041-20.479232 128.763172-30.462857 49.662138-16.639376 105.809365-22.868476 149.071743-25.08706a62.888308 62.888308 0 0 1 27.134982-36.691957z" fill="#555555" p-id="20235"></path></svg>