<svg t="1729673108810" class="icon" viewBox="0 0 1024 1024" version="1.1" xmlns="http://www.w3.org/2000/svg" p-id="35762" width="200" height="200"><path d="M832 704a128 128 0 0 0-69.12 20.48l-56.96-64a192 192 0 0 0-7.04-248.96l88.96-102.4a128 128 0 1 0-52.48-37.12l-87.68 103.04A192 192 0 0 0 368 512L320 504.32a128 128 0 1 0-12.16 64l64 8.32a192 192 0 0 0 289.92 128l64 64A128 128 0 0 0 704 832a128 128 0 1 0 128-128zM192 576a64 64 0 1 1 64-64 64 64 0 0 1-64 64z m640-448a64 64 0 1 1-64 64 64 64 0 0 1 64-64zM428.8 542.72a128 128 0 1 1 128 128 128 128 0 0 1-128-128zM832 896a64 64 0 1 1 64-64 64 64 0 0 1-64 64z" p-id="35763" fill="#555555"></path></svg>