<svg viewBox="0 0 1024 1024" version="1.1" xmlns="http://www.w3.org/2000/svg" width="48" height="48"><path d="M487.061859 314.542494L617.31068 709.457506H540.741047l-26.839594-80.445651h-141.876875l-26.839594 80.445651h-76.78903l130.468219-394.915012h88.197686z m-46.073418 92.000571L394.988155 544.617055h88.197686L441.061573 406.543065zM755.530935 318.345379h-69.036995v394.915012h69.036995v-394.915012z" fill="#515151" p-id="2721"></path><path d="M832.1737 908.889587H195.629206c-53.679189 0-99.679474-46.073418-99.679474-99.679474V214.789887c0-53.679189 46.000286-99.679474 99.679474-99.679474h636.544494c53.679189 0 99.679474 46.073418 99.679474 99.679474v594.420226c-3.802885 53.679189-46.000286 99.679474-99.679474 99.679474zM195.629206 191.826311a24.718754 24.718754 0 0 0-23.036709 22.963576v594.420226c0 11.481788 11.554921 22.963577 23.036709 22.963576h636.544494a24.718754 24.718754 0 0 0 23.036709-22.963576V214.789887a24.718754 24.718754 0 0 0-23.036709-22.963576H195.629206zM38.394526 302.987573a38.394515 38.394515 0 0 0 0 76.715898h57.555206V302.987573H38.394526z" fill="#515151" p-id="2722"></path><path d="M985.605495 383.579489a38.394515 38.394515 0 0 0 0-76.715898h-57.482074v76.715898h57.482074zM38.394526 644.296529a38.394515 38.394515 0 0 0 0 76.715898h57.555206V640.493644H38.394526v3.802885zM985.605495 644.369661h-57.555206v80.445651h57.555206A38.394515 38.394515 0 0 0 1023.926878 686.493929c0-26.839594-15.357806-42.1974-38.321383-42.1974zM383.506367 38.394515a38.394515 38.394515 0 0 0-76.715898 0v76.715898h76.715898V38.394515zM303.060716 985.605485a38.394515 38.394515 0 0 0 76.715898 0v-76.715898h-76.78903v76.715898zM644.369672 985.605485c0 22.963577 19.087559 38.321383 38.321383 38.321383 19.160691 0 38.321383-19.160691 38.321382-38.321383v-76.715898H640.493654v76.715898h3.802886zM720.939305 38.394515A38.394515 38.394515 0 0 0 682.617922 0.073132c-19.160691 0-38.321383 19.160691-38.321382 38.321383v76.715898h80.44565V38.394515h-3.802885z" fill="#515151" p-id="2723"></path></svg>