<svg t="1731639054873" class="icon" viewBox="0 0 1024 1024" version="1.1" xmlns="http://www.w3.org/2000/svg" p-id="22389" width="200" height="200"><path d="M751.605223 641.239613c4.1587 7.037801 7.997501 14.075601 11.516401 20.953452 36.628554 71.817557 35.348953 111.645111 23.032803 123.801312-12.156201 12.316151-51.983755 13.595751-123.801312-23.032802-35.508903-18.234302-73.577007-42.866604-112.284911-72.617308 22.712902-19.353952 45.425804-39.987504 67.658856-62.060606v-68.778506c-9.277101 9.916901-18.714152 19.833802-28.471102 29.590753-25.432052 25.272102-51.184005 48.944705-77.095908 70.697906a1250.297282 1250.297282 0 0 1-77.095908-70.697906c-25.272102-25.432052-48.944705-51.184005-70.697906-77.095908 21.753202-25.911903 45.425804-51.663855 70.697906-77.095908 25.432052-25.272102 51.184005-48.944705 77.095908-70.697906 25.911903 21.753202 51.663855 45.425804 77.095908 70.697906 9.756951 9.756951 19.194002 19.673852 28.471102 29.590753v-68.778506a1207.094783 1207.094783 0 0 0-67.658856-62.060606c38.707904-29.750703 76.776007-54.383005 112.284911-72.617308 44.466104-22.712902 76.616057-30.870353 97.729459-30.870353 12.796001 0 21.433302 3.03905 26.071853 7.837551 12.316151 12.156201 13.595751 51.983755-23.032803 123.801312-3.5189 6.877851-7.357701 13.915651-11.516401 20.953452h54.542956c42.546704-83.493908 47.345205-145.394564 14.075601-178.824117-33.589503-33.589503-95.810059-28.471103-179.623867 14.395501-40.627304 20.793502-84.293658 49.584505-128.439863 84.133709-44.146204-34.549203-87.812559-63.340206-128.439863-84.133709-83.973758-42.866604-146.034364-47.825055-179.623867-14.395501-33.429553 33.589503-28.471103 95.810059 14.395501 179.623867 20.793502 40.627304 49.584505 84.293658 84.133709 128.439863-34.549203 44.146204-63.340206 87.812559-84.133709 128.439863-42.866604 83.813808-47.825055 146.034364-14.395501 179.623867 14.715401 14.555451 34.869103 21.913152 59.821306 21.913152 32.309903 0 72.617307-12.156201 119.802561-36.308653 40.627304-20.793502 84.293658-49.584505 128.439863-84.133709 44.146204 34.549203 87.812559 63.340206 128.439863 84.133709 47.185255 24.152452 87.492659 36.308654 119.802561 36.308653 24.952202 0 45.105904-7.357701 59.821306-21.913152 33.269603-33.429553 28.471103-95.330209-14.075601-178.824117h-54.542956zM261.198475 361.806935c-36.628554-71.817557-35.348953-111.645111-23.032802-123.801312 12.156201-12.316151 51.983755-13.595751 123.801312 23.032802 35.508903 18.234302 73.577007 42.866604 112.284911 72.617308-24.632302 20.953452-49.104655 43.346454-73.097157 67.338956s-46.385505 48.464855-67.338956 73.097157c-29.750703-38.707904-54.383005-76.776007-72.617308-112.284911z m100.76851 401.15464c-71.817557 36.628554-111.645111 35.348953-123.801312 23.032802-12.316151-12.156201-13.595751-51.983755 23.032802-123.801312 18.234302-35.508903 42.866604-73.577007 72.617308-112.284911 20.953452 24.632302 43.346454 49.104655 67.338956 73.097157s48.464855 46.385505 73.097157 67.338956c-38.707904 29.750703-76.776007 54.383005-112.284911 72.617308z" fill="#555555" p-id="22390" data-spm-anchor-id="a313x.search_index.0.i3.55cb3a81Zovwdg" class="selected"></path><path d="M787.274077 424.347391v106.686661c-14.395501-22.393002-37.588254-57.102156-68.778507-103.16776l-2.39925-3.518901h-40.307404V606.370509h42.386754v-106.36676c15.035301 22.552952 38.228054 56.782256 69.578257 102.84786l2.39925 3.5189h39.507654V424.347391H787.274077z" fill="#555555" p-id="22391" data-spm-anchor-id="a313x.search_index.0.i5.55cb3a81Zovwdg" class="selected"></path></svg>