<svg t="1731934078170" class="icon" viewBox="0 0 1024 1024" version="1.1" xmlns="http://www.w3.org/2000/svg" p-id="41921" width="200" height="200"><path d="M777.728 988.16H248.32c-84.48 0-153.6-69.632-153.6-154.624V190.464C94.72 105.472 163.84 35.84 248.32 35.84h378.88c40.96 0 79.36 18.944 104.448 50.688l170.496 217.6c18.432 23.552 28.672 53.248 28.672 82.944v445.952c0.512 85.504-68.608 155.136-153.088 155.136z" fill="#FFF5EE" p-id="41922"></path><path d="M777.728 1024H248.32c-104.448 0-189.44-85.504-189.44-190.464V190.464C58.88 85.504 143.872 0 248.32 0h378.88c52.224 0 100.352 23.552 132.608 65.024l170.496 217.6c23.552 29.696 36.352 67.072 36.352 104.96v445.952c0.512 104.96-84.48 190.464-188.928 190.464zM248.32 72.192c-65.024 0-117.76 53.248-117.76 118.272v643.072c0 65.536 52.736 118.272 117.76 118.272h528.896c65.024 0 117.76-53.248 117.76-118.272V387.584c0-21.504-7.168-43.008-20.992-60.928l-170.496-217.6c-18.432-23.552-46.592-36.864-76.288-36.864h-378.88z" fill="#fa6400" p-id="41923" data-spm-anchor-id="a313x.search_index.0.i51.55cb3a81Zovwdg" class=""></path><path d="M734.208 548.864h-61.44c-4.096 0-5.12 1.536-5.12 5.12l0.512 189.952c0 3.072 1.024 5.12 5.12 5.12h60.928c4.096 0 5.12-1.536 5.12-5.12v-189.952c0-4.096-1.536-5.12-5.12-5.12zM702.464 505.344c23.552 0 40.448-13.824 40.448-39.424 0-23.04-15.872-39.424-39.424-39.424-21.504 0-39.424 14.848-39.424 39.424 0 25.6 15.872 39.936 38.4 39.424zM414.208 370.176l-131.584 375.808h71.168l31.232-96.768h125.952l31.232 96.768h73.728L483.84 370.176H414.208z m-9.728 220.16l44.032-137.216 43.52 137.216H404.48z" fill="#fa6400" p-id="41924" data-spm-anchor-id="a313x.search_index.0.i48.55cb3a81Zovwdg" class=""></path></svg>