<svg t="1729604820611" class="icon" viewBox="0 0 1024 1024" version="1.1" xmlns="http://www.w3.org/2000/svg" p-id="8125" width="200" height="200"><path d="M462.12 667.42H84c-11.05 0-20-8.95-20-20V109.5c0-11.05 8.95-20 20-20h378.12c11.05 0 20 8.95 20 20v537.92c0 11.04-8.95 20-20 20z" fill="#999999" opacity=".5" p-id="8126"></path><path d="M462.12 953.12H84c-11.05 0-20-8.95-20-20v-206.3c0-11.05 8.95-20 20-20h378.12c11.05 0 20 8.95 20 20v206.29c0 11.05-8.95 20.01-20 20.01z" fill="#999999" p-id="8127"></path><path d="M935 953.12H718.86c-11.05 0-20-8.95-20-20V313.05c0-11.05 8.95-20 20-20H935c11.05 0 20 8.95 20 20v620.06c0 11.05-8.95 20.01-20 20.01z" fill="#999999" opacity=".7" p-id="8128"></path><path d="M935 243.61H718.86c-11.05 0-20-8.95-20-20V109.5c0-11.05 8.95-20 20-20H935c11.05 0 20 8.95 20 20v114.11c0 11.05-8.95 20-20 20z" fill="#999999" p-id="8129"></path><path d="M629.6 494.04h-88.07c-11.05 0-20-8.95-20-20V109.5c0-11.05 8.95-20 20-20h88.07c11.05 0 20 8.95 20 20v364.54c0 11.05-8.96 20-20 20z" fill="#999999" opacity=".8" p-id="8130"></path><path d="M629.6 953.12h-88.07c-11.05 0-20-8.95-20-20V559.35c0-11.05 8.95-20 20-20h88.07c11.05 0 20 8.95 20 20v373.77c0 11.04-8.96 20-20 20z" fill="#999999" opacity=".3" p-id="8131"></path></svg>