<svg viewBox="0 0 1024 1024" version="1.1" xmlns="http://www.w3.org/2000/svg"
     width="32" height="32">
    <path d="M871.005091 378.321455l-11.450182 26.344727a23.552 23.552 0 0 1-43.473454 0l-11.450182-26.344727a203.077818 203.077818 0 0 0-103.330909-104.727273l-35.328-15.778909a24.669091 24.669091 0 0 1 0-44.823273l33.373091-14.848a203.217455 203.217455 0 0 0 104.773818-108.264727l11.776-28.439273a23.552 23.552 0 0 1 43.845818 0l11.776 28.392727a203.217455 203.217455 0 0 0 104.727273 108.311273l33.419636 14.894545a24.669091 24.669091 0 0 1 0 44.776728l-35.374545 15.732363a203.077818 203.077818 0 0 0-103.284364 104.773819zM46.173091 139.636364H558.545455v93.090909H93.090909v651.636363l432.500364-432.593454a46.545455 46.545455 0 0 1 65.861818 0L837.818182 698.647273V512h93.090909v419.234909a46.545455 46.545455 0 0 1-46.173091 46.219636H46.173091A46.219636 46.219636 0 0 1 0 931.234909V185.856A46.545455 46.545455 0 0 1 46.173091 139.636364zM279.272727 512a93.090909 93.090909 0 1 1 0-186.181818 93.090909 93.090909 0 0 1 0 186.181818z"
          fill="#333"></path>
</svg>