<svg t="1729605583580" class="icon" viewBox="0 0 1024 1024" version="1.1" xmlns="http://www.w3.org/2000/svg" p-id="18036" width="200" height="200"><path d="M1.024 0h62.976v962.048H1.024V0z" fill="#606060" p-id="18037"></path><path d="M1.024 958.976h1022.464V1024H1.024v-65.024z" fill="#555555" p-id="18038" data-spm-anchor-id="a313x.search_index.0.i17.5b543a81sLZnYD" class="selected"></path><path d="M386.56 800.768h124.416v158.72H386.56v-158.72z" fill="#B5B5B5" p-id="18039"></path><path d="M510.464 800.256H634.88v158.72H510.464v-158.72z" fill="#555555" p-id="18040" data-spm-anchor-id="a313x.search_index.0.i16.5b543a81sLZnYD" class=""></path><path d="M264.192 642.56h124.416v158.72H264.192v-158.72z" fill="#B5B5B5" p-id="18041"></path><path d="M387.584 642.56H512v158.72H387.584v-158.72z" fill="#606060" p-id="18042" data-spm-anchor-id="a313x.search_index.0.i19.5b543a81sLZnYD" class="selected"></path><path d="M634.368 800.768h124.416v158.72h-124.416v-158.72z m-122.88-158.72h124.416v158.72H511.488v-158.72z" fill="#B5B5B5" p-id="18043"></path><path d="M635.392 642.56h124.416v158.72h-124.416v-158.72z m-571.904-317.44h124.416v158.72H63.488v-158.72z" fill="#606060" p-id="18044"></path><path d="M386.048 483.328h124.416v158.72H386.048v-158.72z m371.2 2.048h124.416v158.72h-124.416v-158.72z" fill="#B5B5B5" p-id="18045"></path><path d="M386.048 325.12h124.416v158.72H386.048v-158.72z" fill="#606060" p-id="18046"></path></svg>