<svg t="1729591946605" class="icon" viewBox="0 0 1024 1024" version="1.1" xmlns="http://www.w3.org/2000/svg" p-id="4466" width="200" height="200"><path d="M195.894247 812.240377a75.1616 75.1616 0 1 0 106.292699-106.296409 75.1616 75.1616 0 1 0-106.292699 106.296409Z" p-id="4467" fill="#555555"></path><path d="M526.65233 500.815704a75.1616 75.1616 0 1 0 106.292699-106.296409 75.1616 75.1616 0 1 0-106.292699 106.296409Z" p-id="4468" fill="#555555"></path><path d="M339.7632 555.9296c31.1296 0 56.2176-25.2928 56.2176-56.2176 0-31.1296-25.2928-56.2176-56.2176-56.2176-31.1296 0-56.2176 25.2928-56.2176 56.2176s24.9856 56.2176 56.2176 56.2176zM539.5456 763.904c0 62.2592 50.3808 112.64 112.64 112.64s112.64-50.3808 112.64-112.64-50.3808-112.64-112.64-112.64-112.64 50.3808-112.64 112.64z" p-id="4469" fill="#555555"></path><path d="M804.4544 231.7312m-65.7408 0a65.7408 65.7408 0 1 0 131.4816 0 65.7408 65.7408 0 1 0-131.4816 0Z" p-id="4470" fill="#555555"></path><path d="M956.5184 922.9312H102.1952V68.3008c0-18.5344-15.1552-33.6896-33.6896-33.6896S34.816 49.664 34.816 68.3008v888.4224c0 18.5344 15.1552 33.6896 33.6896 33.6896h888.0128c18.5344 0 33.6896-15.1552 33.6896-33.6896 0-18.7392-15.1552-33.792-33.6896-33.792z" p-id="4471" fill="#555555"></path></svg>