<svg t="1729672859627" class="icon" viewBox="0 0 1024 1024" version="1.1" xmlns="http://www.w3.org/2000/svg" p-id="30023" width="200" height="200"><path d="M0 410.770286c405.625905 0 568.905143 355.474286 993.401905 369.42019 15.09181-143.481905-2.31619-122.709333 0-240.054857C602.86781 540.135619 552.667429 170.666667 0 170.666667c1.170286 104.009143 1.755429 105.813333 0 240.103619z" fill="#929292" p-id="30024"></path><path d="M0 637.732571C398.165333 637.732571 582.851048 232.911238 999.545905 219.428571c0.560762 124.464762-2.29181 122.709333 0 239.908572C616.17981 459.410286 542.47619 877.714286 0 877.714286c1.145905-103.838476 1.731048-105.081905 0-239.981715z" fill="#B7B7B7" p-id="30025"></path><path d="M0 544.01219C401.432381 537.35619 447.804952 890.270476 999.545905 926.47619c0.585143-128.658286-2.340571 64.902095 0-56.393142C477.476571 821.76 434.297905 487.619048 0 487.619048c1.170286 107.861333 1.77981-82.70019 0 56.393142z" fill="#D5D5D5" p-id="30026"></path><path d="M0 926.47619h44.641524V121.904762H0v804.571428z m979.358476 0H1024V121.904762h-44.617143l-0.024381 804.571428z" fill="#555555" p-id="30027" data-spm-anchor-id="a313x.search_index.0.i35.5b543a81sLZnYD" class="selected"></path></svg>