<svg t="1728982493377" class="icon" viewBox="0 0 1025 1024" version="1.1" xmlns="http://www.w3.org/2000/svg" p-id="20109" width="200" height="200"><path d="M43.127559 937.744882h937.625083c28.751706 0 43.127559 14.375853 43.127559 43.127559 0 28.751706-14.375853 43.127559-43.127559 43.127559H43.127559C14.375853 1022.402683 0 1008.02683 0 979.275124c0-27.154389 14.375853-41.530242 43.127559-41.530242z" fill="#CDCECD" p-id="20110"></path><path d="M426.483641 595.919042h170.912919v340.228523H426.483641zM127.785361 937.744882h170.912919V603.905627c-63.89268-4.791951-121.396093-27.154389-170.912919-62.295363v396.134618zM725.181921 127.905159h170.91292v809.839723H725.181921z" fill="#555555" p-id="20111" data-spm-anchor-id="a313x.search_index.0.i11.7e013a818duI9N" class="selected"></path><path d="M632.537535 423.408806c-17.570487-6.389268-22.362438-17.570487-27.15439-35.140975-7.986585-36.738291-43.127559-51.114144-81.463167-31.94634 9.583902 6.389268 15.97317 11.181219 22.362438 15.97317 23.959755 22.362438 27.154389 52.711461 7.986585 76.671217-17.570487 23.959755-47.91951 30.349023-73.476582 15.97317-27.154389-15.97317-35.140974-44.724876-22.362438-73.476583 4.791951-11.181219 11.181219-20.765121 15.97317-30.349023 51.114144-105.422922 22.362438-234.8056-65.489997-305.087548C325.852669-9.464103 214.040479-19.048005 122.99341 35.260773 33.543657 86.374917-12.778536 187.005889 3.194634 292.428811 17.570487 380.281246 63.89268 453.757829 127.785361 503.274656c47.91951 36.738291 107.020239 59.100729 170.912919 62.295363 27.154389 1.597317 52.711461 1.597317 81.463168-3.194634 65.489997-11.181219 119.798775-41.530242 169.315602-84.657801 39.932925-33.543657 76.671216-23.959755 99.033655 23.959755 1.597317 3.194634 6.389268 9.583902 7.986585 7.986585 20.765121-7.986585 14.375853-71.879265-23.959755-86.255118z" fill="#555555" p-id="20112" data-spm-anchor-id="a313x.search_index.0.i8.7e013a818duI9N" class="selected"></path></svg>