<svg t="1729080890044" class="icon" viewBox="0 0 1059 1024" version="1.1" xmlns="http://www.w3.org/2000/svg" p-id="11516" width="200" height="200"><path d="M802.133333 784.384c-71.68 78.848-172.373333 121.856-287.061333 121.856-21.504 0-43.008 0-64.512-7.168l28.672-107.52H522.24c78.848 0 143.701333-28.672 193.877333-78.848l86.016 71.68z m35.84-43.008l-93.184-71.68c35.84-43.008 50.176-100.352 50.176-165.205333 0-143.701333-107.52-265.557333-244.053333-279.893334V117.077333C751.957333 138.581333 909.653333 303.786667 909.653333 512c0 86.016-28.672 164.864-71.68 229.376z m-437.930666 150.869333c-107.52-35.84-193.877333-107.52-236.885334-201.045333l100.352-43.008c35.84 64.512 86.016 107.52 158.037334 129.365333l-21.504 114.688z m-258.389334-251.221333c-14.336-43.008-21.504-86.016-21.504-129.365333 0-215.381333 172.373333-387.754667 380.586667-394.922667v114.688c-150.869333 7.168-265.557333 129.365333-265.557333 279.893333 0 28.672 7.168 64.512 14.336 93.184-0.341333 0.682667-107.861333 36.522667-107.861334 36.522667z" p-id="11517" fill="#555555"></path><path d="M141.653333 641.024c-14.336-43.008-21.504-86.016-21.504-129.365333 0-215.381333 172.373333-387.754667 387.754667-394.922667v114.688c-150.869333 0-272.725333 129.365333-272.725333 279.893333 0 28.672 7.168 64.512 14.336 93.184l-107.861334 36.522667z m308.565334 258.389333l21.504-107.52h43.008c78.848 0 158.037333-35.84 208.213333-86.016l78.848 78.848c-71.68 78.848-172.373333 121.856-287.061333 121.856-21.504 0-43.008 0-64.512-7.168z" p-id="11518" fill="#555555"></path><path d="M299.690667 583.68c-7.168-21.504-14.336-50.176-14.336-71.68 0-121.856 93.184-215.381333 215.381333-222.549333v114.688c-57.344 0-100.352 50.176-100.352 107.52 0 14.336 7.168 21.504 7.168 35.84L299.690667 583.68z m21.504 43.008l107.52-43.008c21.504 28.672 50.176 43.008 86.016 43.008 64.512 0 114.688-50.176 114.688-114.688 0-50.176-28.672-93.184-71.68-107.52V289.109333c107.52 21.504 186.709333 107.52 186.709333 222.549334 0 121.856-100.352 222.549333-222.549333 222.549333-93.184 0-164.864-43.008-200.704-107.52z" p-id="11519" fill="#555555"></path><path d="M299.690667 583.68c-7.168-21.504-14.336-50.176-14.336-71.68 0-121.856 93.184-222.549333 215.381333-222.549333v114.688c-50.176 0-100.352 50.176-100.352 107.52 0 14.336 7.168 21.504 7.168 35.84L299.690667 583.68z" p-id="11520" fill="#555555"></path></svg>