<svg t="1729675368434" class="icon" viewBox="0 0 1024 1024" version="1.1" xmlns="http://www.w3.org/2000/svg" p-id="37825" width="200" height="200"><path d="M952.021333 224h-52.053333a8.021333 8.021333 0 0 0-7.978667 8.021333v247.978667H800V304a8.021333 8.021333 0 0 0-8.021333-8.021333H232.021333a8.021333 8.021333 0 0 0-7.978666 8.021333v176H132.010667V231.978667a8.021333 8.021333 0 0 0-8.021334-7.978667H71.978667a8.021333 8.021333 0 0 0-7.978667 8.021333v560c0 4.394667 3.584 7.978667 8.021333 7.978667h51.968a8.021333 8.021333 0 0 0 8.021334-8.021333v-243.968H224v171.989333c0 4.394667 3.584 8.021333 8.021333 8.021333h560a8.021333 8.021333 0 0 0 7.978667-8.021333v-171.989333h91.989333v244.010666c0 4.394667 3.626667 7.978667 8.021334 7.978667h51.968a8.021333 8.021333 0 0 0 8.021333-8.021333V232.021333a8.021333 8.021333 0 0 0-8.021333-7.978666zM296.021333 368H384v288H295.978667v-288z m432 288H448v-288h280.021333v288z" fill="#555555" p-id="37826"></path></svg>